<mxfile host="app.diagrams.net" agent="Mozilla/5.0 (Windows NT 10.0; Win64; x64; rv:135.0) Gecko/20100101 Firefox/135.0" version="26.0.16">
  <diagram id="R2lEEEUBdFMjLlhIrx00" name="Page-1">
    <mxGraphModel dx="1562" dy="793" grid="1" gridSize="10" guides="1" tooltips="1" connect="1" arrows="1" fold="1" page="1" pageScale="1" pageWidth="850" pageHeight="1100" math="0" shadow="0" extFonts="Permanent Marker^https://fonts.googleapis.com/css?family=Permanent+Marker">
      <root>
        <mxCell id="0" />
        <mxCell id="1" parent="0" />
        <mxCell id="5TAWwWppFLTeb1Iua5rg-2" value="Shopkeeper" style="whiteSpace=wrap;html=1;align=center;" parent="1" vertex="1">
          <mxGeometry x="60" y="167" width="100" height="40" as="geometry" />
        </mxCell>
        <mxCell id="5TAWwWppFLTeb1Iua5rg-3" value="Books" style="whiteSpace=wrap;html=1;align=center;" parent="1" vertex="1">
          <mxGeometry x="580" y="167" width="100" height="40" as="geometry" />
        </mxCell>
        <mxCell id="5TAWwWppFLTeb1Iua5rg-12" value="" style="endArrow=none;html=1;rounded=0;exitX=1;exitY=0.5;exitDx=0;exitDy=0;entryX=0;entryY=0.5;entryDx=0;entryDy=0;" parent="1" source="5TAWwWppFLTeb1Iua5rg-6" target="5TAWwWppFLTeb1Iua5rg-3" edge="1">
          <mxGeometry relative="1" as="geometry">
            <mxPoint x="390" y="57" as="sourcePoint" />
            <mxPoint x="650" y="187" as="targetPoint" />
            <Array as="points" />
          </mxGeometry>
        </mxCell>
        <mxCell id="5TAWwWppFLTeb1Iua5rg-14" value="(1,N)" style="resizable=0;html=1;whiteSpace=wrap;align=right;verticalAlign=bottom;" parent="5TAWwWppFLTeb1Iua5rg-12" connectable="0" vertex="1">
          <mxGeometry x="1" relative="1" as="geometry" />
        </mxCell>
        <mxCell id="5TAWwWppFLTeb1Iua5rg-15" value="" style="endArrow=none;html=1;rounded=0;exitX=1;exitY=0.5;exitDx=0;exitDy=0;entryX=0;entryY=0.5;entryDx=0;entryDy=0;" parent="1" source="5TAWwWppFLTeb1Iua5rg-2" target="5TAWwWppFLTeb1Iua5rg-6" edge="1">
          <mxGeometry relative="1" as="geometry">
            <mxPoint x="170" y="187" as="sourcePoint" />
            <mxPoint x="550" y="187" as="targetPoint" />
            <Array as="points" />
          </mxGeometry>
        </mxCell>
        <mxCell id="5TAWwWppFLTeb1Iua5rg-16" value="(1,10)" style="resizable=0;html=1;whiteSpace=wrap;align=left;verticalAlign=bottom;" parent="5TAWwWppFLTeb1Iua5rg-15" connectable="0" vertex="1">
          <mxGeometry x="-1" relative="1" as="geometry" />
        </mxCell>
        <mxCell id="5TAWwWppFLTeb1Iua5rg-6" value="Orders" style="shape=rhombus;perimeter=rhombusPerimeter;whiteSpace=wrap;html=1;align=center;" parent="1" vertex="1">
          <mxGeometry x="355" y="157" width="120" height="60" as="geometry" />
        </mxCell>
        <mxCell id="5TAWwWppFLTeb1Iua5rg-22" value="Name" style="ellipse;whiteSpace=wrap;html=1;align=center;" parent="1" vertex="1">
          <mxGeometry x="120" y="40" width="100" height="45" as="geometry" />
        </mxCell>
        <mxCell id="5TAWwWppFLTeb1Iua5rg-24" value="Phone_No" style="ellipse;whiteSpace=wrap;html=1;align=center;" parent="1" vertex="1">
          <mxGeometry x="230" y="50" width="100" height="45" as="geometry" />
        </mxCell>
        <mxCell id="5TAWwWppFLTeb1Iua5rg-26" value="Genre" style="ellipse;whiteSpace=wrap;html=1;align=center;" parent="1" vertex="1">
          <mxGeometry x="740" y="60" width="100" height="40" as="geometry" />
        </mxCell>
        <mxCell id="5TAWwWppFLTeb1Iua5rg-29" value="Employee" style="whiteSpace=wrap;html=1;align=center;" parent="1" vertex="1">
          <mxGeometry x="50" y="416" width="100" height="40" as="geometry" />
        </mxCell>
        <mxCell id="5TAWwWppFLTeb1Iua5rg-30" value="Project" style="whiteSpace=wrap;html=1;align=center;" parent="1" vertex="1">
          <mxGeometry x="600" y="416" width="100" height="40" as="geometry" />
        </mxCell>
        <mxCell id="5TAWwWppFLTeb1Iua5rg-32" value="" style="endArrow=none;html=1;rounded=0;exitX=1;exitY=0.5;exitDx=0;exitDy=0;entryX=0;entryY=0.5;entryDx=0;entryDy=0;" parent="1" source="5TAWwWppFLTeb1Iua5rg-34" target="5TAWwWppFLTeb1Iua5rg-30" edge="1">
          <mxGeometry relative="1" as="geometry">
            <mxPoint x="210" y="434.89" as="sourcePoint" />
            <mxPoint x="370" y="434.89" as="targetPoint" />
          </mxGeometry>
        </mxCell>
        <mxCell id="5TAWwWppFLTeb1Iua5rg-33" value="(1,N)" style="resizable=0;html=1;whiteSpace=wrap;align=right;verticalAlign=bottom;" parent="5TAWwWppFLTeb1Iua5rg-32" connectable="0" vertex="1">
          <mxGeometry x="1" relative="1" as="geometry" />
        </mxCell>
        <mxCell id="5TAWwWppFLTeb1Iua5rg-34" value="Works on" style="shape=rhombus;perimeter=rhombusPerimeter;whiteSpace=wrap;html=1;align=center;" parent="1" vertex="1">
          <mxGeometry x="320" y="416" width="120" height="60" as="geometry" />
        </mxCell>
        <mxCell id="5TAWwWppFLTeb1Iua5rg-37" value="&lt;span style=&quot;border-bottom: 1px dotted&quot;&gt;Employee_ID&lt;/span&gt;" style="ellipse;whiteSpace=wrap;html=1;align=center;" parent="1" vertex="1">
          <mxGeometry y="320" width="100" height="40" as="geometry" />
        </mxCell>
        <mxCell id="5TAWwWppFLTeb1Iua5rg-40" value="Name" style="ellipse;whiteSpace=wrap;html=1;align=center;" parent="1" vertex="1">
          <mxGeometry x="90" y="280" width="100" height="40" as="geometry" />
        </mxCell>
        <mxCell id="5TAWwWppFLTeb1Iua5rg-42" value="Phone_No" style="ellipse;whiteSpace=wrap;html=1;align=center;" parent="1" vertex="1">
          <mxGeometry x="200" y="280" width="100" height="40" as="geometry" />
        </mxCell>
        <mxCell id="5TAWwWppFLTeb1Iua5rg-43" value="Department" style="ellipse;whiteSpace=wrap;html=1;align=center;" parent="1" vertex="1">
          <mxGeometry x="270" y="340" width="100" height="30" as="geometry" />
        </mxCell>
        <mxCell id="5TAWwWppFLTeb1Iua5rg-48" value="Name" style="ellipse;whiteSpace=wrap;html=1;align=center;" parent="1" vertex="1">
          <mxGeometry x="590" y="290" width="100" height="40" as="geometry" />
        </mxCell>
        <mxCell id="5TAWwWppFLTeb1Iua5rg-52" value="Deadline" style="ellipse;whiteSpace=wrap;html=1;align=center;" parent="1" vertex="1">
          <mxGeometry x="720" y="310" width="100" height="40" as="geometry" />
        </mxCell>
        <mxCell id="5TAWwWppFLTeb1Iua5rg-54" value="Hours_Worked" style="ellipse;whiteSpace=wrap;html=1;align=center;" parent="1" vertex="1">
          <mxGeometry x="375" y="260" width="100" height="40" as="geometry" />
        </mxCell>
        <mxCell id="5TAWwWppFLTeb1Iua5rg-94" value="" style="endArrow=none;html=1;rounded=0;exitX=0;exitY=0.5;exitDx=0;exitDy=0;entryX=1;entryY=0.75;entryDx=0;entryDy=0;" parent="1" source="5TAWwWppFLTeb1Iua5rg-34" target="5TAWwWppFLTeb1Iua5rg-29" edge="1">
          <mxGeometry relative="1" as="geometry">
            <mxPoint x="450" y="446" as="sourcePoint" />
            <mxPoint x="190" y="460" as="targetPoint" />
          </mxGeometry>
        </mxCell>
        <mxCell id="5TAWwWppFLTeb1Iua5rg-95" value="(1,M)" style="resizable=0;html=1;whiteSpace=wrap;align=right;verticalAlign=bottom;" parent="5TAWwWppFLTeb1Iua5rg-94" connectable="0" vertex="1">
          <mxGeometry x="1" relative="1" as="geometry">
            <mxPoint x="40" as="offset" />
          </mxGeometry>
        </mxCell>
        <mxCell id="IJ8p-ocKVu34j_YwC-Zw-1" value="Shopkeeper_ID" style="ellipse;whiteSpace=wrap;html=1;align=center;fontStyle=4;" vertex="1" parent="1">
          <mxGeometry x="10" y="50" width="100" height="40" as="geometry" />
        </mxCell>
        <mxCell id="IJ8p-ocKVu34j_YwC-Zw-3" value="" style="endArrow=none;html=1;rounded=0;exitX=0.5;exitY=1;exitDx=0;exitDy=0;entryX=0.25;entryY=0;entryDx=0;entryDy=0;" edge="1" parent="1" source="IJ8p-ocKVu34j_YwC-Zw-1" target="5TAWwWppFLTeb1Iua5rg-2">
          <mxGeometry relative="1" as="geometry">
            <mxPoint x="30" y="120" as="sourcePoint" />
            <mxPoint x="190" y="120" as="targetPoint" />
          </mxGeometry>
        </mxCell>
        <mxCell id="IJ8p-ocKVu34j_YwC-Zw-4" value="" style="endArrow=none;html=1;rounded=0;exitX=0.39;exitY=0.911;exitDx=0;exitDy=0;exitPerimeter=0;entryX=0.44;entryY=0.025;entryDx=0;entryDy=0;entryPerimeter=0;" edge="1" parent="1" source="5TAWwWppFLTeb1Iua5rg-22" target="5TAWwWppFLTeb1Iua5rg-2">
          <mxGeometry relative="1" as="geometry">
            <mxPoint x="60" y="350" as="sourcePoint" />
            <mxPoint x="220" y="350" as="targetPoint" />
          </mxGeometry>
        </mxCell>
        <mxCell id="IJ8p-ocKVu34j_YwC-Zw-5" value="" style="endArrow=none;html=1;rounded=0;exitX=0.67;exitY=-0.025;exitDx=0;exitDy=0;exitPerimeter=0;entryX=0.27;entryY=1;entryDx=0;entryDy=0;entryPerimeter=0;" edge="1" parent="1" source="5TAWwWppFLTeb1Iua5rg-2" target="5TAWwWppFLTeb1Iua5rg-24">
          <mxGeometry relative="1" as="geometry">
            <mxPoint x="150" y="150" as="sourcePoint" />
            <mxPoint x="320" y="150" as="targetPoint" />
          </mxGeometry>
        </mxCell>
        <mxCell id="IJ8p-ocKVu34j_YwC-Zw-6" value="" style="endArrow=none;html=1;rounded=0;exitX=0.6;exitY=0.975;exitDx=0;exitDy=0;entryX=0.5;entryY=0;entryDx=0;entryDy=0;exitPerimeter=0;" edge="1" parent="1" source="IJ8p-ocKVu34j_YwC-Zw-7" target="5TAWwWppFLTeb1Iua5rg-3">
          <mxGeometry relative="1" as="geometry">
            <mxPoint x="660" y="110" as="sourcePoint" />
            <mxPoint x="810" y="120" as="targetPoint" />
          </mxGeometry>
        </mxCell>
        <mxCell id="IJ8p-ocKVu34j_YwC-Zw-7" value="Book_ID" style="ellipse;whiteSpace=wrap;html=1;align=center;fontStyle=4;" vertex="1" parent="1">
          <mxGeometry x="600" y="60" width="100" height="40" as="geometry" />
        </mxCell>
        <mxCell id="IJ8p-ocKVu34j_YwC-Zw-8" value="" style="endArrow=none;html=1;rounded=0;exitX=0.63;exitY=-0.025;exitDx=0;exitDy=0;exitPerimeter=0;entryX=0.38;entryY=1.025;entryDx=0;entryDy=0;entryPerimeter=0;" edge="1" parent="1" source="5TAWwWppFLTeb1Iua5rg-3" target="5TAWwWppFLTeb1Iua5rg-26">
          <mxGeometry relative="1" as="geometry">
            <mxPoint x="720" y="160" as="sourcePoint" />
            <mxPoint x="880" y="160" as="targetPoint" />
          </mxGeometry>
        </mxCell>
        <mxCell id="IJ8p-ocKVu34j_YwC-Zw-9" value="Project_ID" style="ellipse;whiteSpace=wrap;html=1;align=center;fontStyle=4;" vertex="1" parent="1">
          <mxGeometry x="475" y="300" width="100" height="40" as="geometry" />
        </mxCell>
        <mxCell id="IJ8p-ocKVu34j_YwC-Zw-10" value="" style="endArrow=none;html=1;rounded=0;exitX=0.5;exitY=1;exitDx=0;exitDy=0;entryX=0.25;entryY=0;entryDx=0;entryDy=0;" edge="1" parent="1" source="IJ8p-ocKVu34j_YwC-Zw-9" target="5TAWwWppFLTeb1Iua5rg-30">
          <mxGeometry relative="1" as="geometry">
            <mxPoint x="510" y="380" as="sourcePoint" />
            <mxPoint x="620" y="410" as="targetPoint" />
          </mxGeometry>
        </mxCell>
        <mxCell id="IJ8p-ocKVu34j_YwC-Zw-11" value="" style="endArrow=none;html=1;rounded=0;exitX=0.5;exitY=0;exitDx=0;exitDy=0;entryX=0.6;entryY=1;entryDx=0;entryDy=0;entryPerimeter=0;" edge="1" parent="1" source="5TAWwWppFLTeb1Iua5rg-34" target="5TAWwWppFLTeb1Iua5rg-54">
          <mxGeometry relative="1" as="geometry">
            <mxPoint x="330" y="390" as="sourcePoint" />
            <mxPoint x="490" y="390" as="targetPoint" />
          </mxGeometry>
        </mxCell>
        <mxCell id="IJ8p-ocKVu34j_YwC-Zw-12" value="" style="endArrow=none;html=1;rounded=0;exitX=0.5;exitY=1;exitDx=0;exitDy=0;entryX=0.25;entryY=0;entryDx=0;entryDy=0;" edge="1" parent="1" source="5TAWwWppFLTeb1Iua5rg-37" target="5TAWwWppFLTeb1Iua5rg-29">
          <mxGeometry relative="1" as="geometry">
            <mxPoint x="60" y="370" as="sourcePoint" />
            <mxPoint x="220" y="370" as="targetPoint" />
          </mxGeometry>
        </mxCell>
        <mxCell id="IJ8p-ocKVu34j_YwC-Zw-13" value="" style="endArrow=none;html=1;rounded=0;exitX=0.41;exitY=0.05;exitDx=0;exitDy=0;exitPerimeter=0;entryX=0.5;entryY=1;entryDx=0;entryDy=0;" edge="1" parent="1" source="5TAWwWppFLTeb1Iua5rg-29" target="5TAWwWppFLTeb1Iua5rg-40">
          <mxGeometry relative="1" as="geometry">
            <mxPoint x="250" y="280" as="sourcePoint" />
            <mxPoint x="410" y="280" as="targetPoint" />
          </mxGeometry>
        </mxCell>
        <mxCell id="IJ8p-ocKVu34j_YwC-Zw-14" value="" style="endArrow=none;html=1;rounded=0;exitX=0.5;exitY=0;exitDx=0;exitDy=0;entryX=0;entryY=1;entryDx=0;entryDy=0;" edge="1" parent="1" source="5TAWwWppFLTeb1Iua5rg-29" target="5TAWwWppFLTeb1Iua5rg-42">
          <mxGeometry relative="1" as="geometry">
            <mxPoint x="130" y="390" as="sourcePoint" />
            <mxPoint x="290" y="390" as="targetPoint" />
          </mxGeometry>
        </mxCell>
        <mxCell id="IJ8p-ocKVu34j_YwC-Zw-15" value="" style="endArrow=none;html=1;rounded=0;exitX=0.75;exitY=0;exitDx=0;exitDy=0;entryX=0;entryY=1;entryDx=0;entryDy=0;" edge="1" parent="1" source="5TAWwWppFLTeb1Iua5rg-29" target="5TAWwWppFLTeb1Iua5rg-43">
          <mxGeometry relative="1" as="geometry">
            <mxPoint x="150" y="410" as="sourcePoint" />
            <mxPoint x="310" y="410" as="targetPoint" />
          </mxGeometry>
        </mxCell>
        <mxCell id="IJ8p-ocKVu34j_YwC-Zw-16" value="Relationship" style="shape=rhombus;perimeter=rhombusPerimeter;whiteSpace=wrap;html=1;align=center;" vertex="1" parent="1">
          <mxGeometry x="40" y="510" width="120" height="60" as="geometry" />
        </mxCell>
        <mxCell id="IJ8p-ocKVu34j_YwC-Zw-17" value="" style="endArrow=none;html=1;rounded=0;exitX=0;exitY=0.5;exitDx=0;exitDy=0;entryX=0.37;entryY=1.1;entryDx=0;entryDy=0;entryPerimeter=0;" edge="1" parent="1" source="IJ8p-ocKVu34j_YwC-Zw-16" target="5TAWwWppFLTeb1Iua5rg-29">
          <mxGeometry relative="1" as="geometry">
            <mxPoint y="490" as="sourcePoint" />
            <mxPoint x="160" y="490" as="targetPoint" />
          </mxGeometry>
        </mxCell>
        <mxCell id="IJ8p-ocKVu34j_YwC-Zw-18" value="" style="endArrow=none;html=1;rounded=0;exitX=1;exitY=0.5;exitDx=0;exitDy=0;entryX=0.63;entryY=1;entryDx=0;entryDy=0;entryPerimeter=0;" edge="1" parent="1" source="IJ8p-ocKVu34j_YwC-Zw-16" target="5TAWwWppFLTeb1Iua5rg-29">
          <mxGeometry relative="1" as="geometry">
            <mxPoint x="100" y="350" as="sourcePoint" />
            <mxPoint x="100" y="350" as="targetPoint" />
          </mxGeometry>
        </mxCell>
        <mxCell id="IJ8p-ocKVu34j_YwC-Zw-19" value="" style="endArrow=none;html=1;rounded=0;entryX=0.43;entryY=-0.05;entryDx=0;entryDy=0;entryPerimeter=0;exitX=0.5;exitY=1;exitDx=0;exitDy=0;" edge="1" parent="1" source="5TAWwWppFLTeb1Iua5rg-48" target="5TAWwWppFLTeb1Iua5rg-30">
          <mxGeometry relative="1" as="geometry">
            <mxPoint x="610" y="370" as="sourcePoint" />
            <mxPoint x="770" y="370" as="targetPoint" />
          </mxGeometry>
        </mxCell>
        <mxCell id="IJ8p-ocKVu34j_YwC-Zw-20" value="" style="endArrow=none;html=1;rounded=0;exitX=0.64;exitY=0;exitDx=0;exitDy=0;exitPerimeter=0;entryX=0.4;entryY=1.05;entryDx=0;entryDy=0;entryPerimeter=0;" edge="1" parent="1" source="5TAWwWppFLTeb1Iua5rg-30" target="5TAWwWppFLTeb1Iua5rg-52">
          <mxGeometry relative="1" as="geometry">
            <mxPoint x="690" y="400" as="sourcePoint" />
            <mxPoint x="840" y="400" as="targetPoint" />
          </mxGeometry>
        </mxCell>
        <mxCell id="IJ8p-ocKVu34j_YwC-Zw-21" value="PATIENT" style="whiteSpace=wrap;html=1;align=center;" vertex="1" parent="1">
          <mxGeometry x="-40" y="660" width="100" height="40" as="geometry" />
        </mxCell>
        <mxCell id="IJ8p-ocKVu34j_YwC-Zw-22" value="SSN" style="ellipse;whiteSpace=wrap;html=1;align=center;fontStyle=4;" vertex="1" parent="1">
          <mxGeometry x="-230" y="800" width="100" height="40" as="geometry" />
        </mxCell>
        <mxCell id="IJ8p-ocKVu34j_YwC-Zw-23" value="" style="endArrow=none;html=1;rounded=0;exitX=0.5;exitY=0;exitDx=0;exitDy=0;entryX=0;entryY=1;entryDx=0;entryDy=0;" edge="1" parent="1" source="IJ8p-ocKVu34j_YwC-Zw-22" target="IJ8p-ocKVu34j_YwC-Zw-21">
          <mxGeometry relative="1" as="geometry">
            <mxPoint x="-160" y="780" as="sourcePoint" />
            <mxPoint y="780" as="targetPoint" />
          </mxGeometry>
        </mxCell>
        <mxCell id="IJ8p-ocKVu34j_YwC-Zw-24" value="Name" style="ellipse;whiteSpace=wrap;html=1;align=center;" vertex="1" parent="1">
          <mxGeometry x="-100" y="810" width="100" height="40" as="geometry" />
        </mxCell>
        <mxCell id="IJ8p-ocKVu34j_YwC-Zw-25" value="" style="endArrow=none;html=1;rounded=0;exitX=0.5;exitY=0;exitDx=0;exitDy=0;entryX=0.25;entryY=1;entryDx=0;entryDy=0;" edge="1" parent="1" source="IJ8p-ocKVu34j_YwC-Zw-24" target="IJ8p-ocKVu34j_YwC-Zw-21">
          <mxGeometry relative="1" as="geometry">
            <mxPoint x="-50" y="770" as="sourcePoint" />
            <mxPoint x="110" y="770" as="targetPoint" />
          </mxGeometry>
        </mxCell>
        <mxCell id="IJ8p-ocKVu34j_YwC-Zw-26" value="Address" style="ellipse;whiteSpace=wrap;html=1;align=center;" vertex="1" parent="1">
          <mxGeometry x="30" y="810" width="100" height="40" as="geometry" />
        </mxCell>
        <mxCell id="IJ8p-ocKVu34j_YwC-Zw-27" value="" style="endArrow=none;html=1;rounded=0;exitX=0.59;exitY=1.1;exitDx=0;exitDy=0;exitPerimeter=0;entryX=0.34;entryY=-0.05;entryDx=0;entryDy=0;entryPerimeter=0;" edge="1" parent="1" source="IJ8p-ocKVu34j_YwC-Zw-21" target="IJ8p-ocKVu34j_YwC-Zw-26">
          <mxGeometry relative="1" as="geometry">
            <mxPoint x="40" y="750" as="sourcePoint" />
            <mxPoint x="200" y="750" as="targetPoint" />
          </mxGeometry>
        </mxCell>
        <mxCell id="IJ8p-ocKVu34j_YwC-Zw-28" value="Age" style="ellipse;whiteSpace=wrap;html=1;align=center;" vertex="1" parent="1">
          <mxGeometry x="140" y="790" width="100" height="40" as="geometry" />
        </mxCell>
        <mxCell id="IJ8p-ocKVu34j_YwC-Zw-29" value="" style="endArrow=none;html=1;rounded=0;exitX=1;exitY=0.75;exitDx=0;exitDy=0;entryX=0.4;entryY=0;entryDx=0;entryDy=0;entryPerimeter=0;" edge="1" parent="1" source="IJ8p-ocKVu34j_YwC-Zw-21" target="IJ8p-ocKVu34j_YwC-Zw-28">
          <mxGeometry relative="1" as="geometry">
            <mxPoint x="80" y="720" as="sourcePoint" />
            <mxPoint x="240" y="720" as="targetPoint" />
          </mxGeometry>
        </mxCell>
        <mxCell id="IJ8p-ocKVu34j_YwC-Zw-31" value="DOCTOR" style="whiteSpace=wrap;html=1;align=center;" vertex="1" parent="1">
          <mxGeometry x="350" y="630" width="100" height="40" as="geometry" />
        </mxCell>
        <mxCell id="IJ8p-ocKVu34j_YwC-Zw-32" value="SSN" style="ellipse;whiteSpace=wrap;html=1;align=center;fontStyle=4;" vertex="1" parent="1">
          <mxGeometry x="250" y="740" width="100" height="40" as="geometry" />
        </mxCell>
        <mxCell id="IJ8p-ocKVu34j_YwC-Zw-33" value="" style="endArrow=none;html=1;rounded=0;exitX=0.43;exitY=0.025;exitDx=0;exitDy=0;entryX=0.25;entryY=1;entryDx=0;entryDy=0;exitPerimeter=0;" edge="1" parent="1" source="IJ8p-ocKVu34j_YwC-Zw-32" target="IJ8p-ocKVu34j_YwC-Zw-31">
          <mxGeometry relative="1" as="geometry">
            <mxPoint x="280" y="770" as="sourcePoint" />
            <mxPoint x="420" y="670" as="targetPoint" />
          </mxGeometry>
        </mxCell>
        <mxCell id="IJ8p-ocKVu34j_YwC-Zw-34" value="Name" style="ellipse;whiteSpace=wrap;html=1;align=center;" vertex="1" parent="1">
          <mxGeometry x="365" y="740" width="100" height="40" as="geometry" />
        </mxCell>
        <mxCell id="IJ8p-ocKVu34j_YwC-Zw-35" value="" style="endArrow=none;html=1;rounded=0;exitX=0.5;exitY=1;exitDx=0;exitDy=0;entryX=0.5;entryY=0;entryDx=0;entryDy=0;" edge="1" parent="1" source="IJ8p-ocKVu34j_YwC-Zw-31" target="IJ8p-ocKVu34j_YwC-Zw-34">
          <mxGeometry relative="1" as="geometry">
            <mxPoint x="390" y="690" as="sourcePoint" />
            <mxPoint x="550" y="690" as="targetPoint" />
          </mxGeometry>
        </mxCell>
        <mxCell id="IJ8p-ocKVu34j_YwC-Zw-36" value="Years_of_Experience" style="ellipse;whiteSpace=wrap;html=1;align=center;" vertex="1" parent="1">
          <mxGeometry x="530" y="670" width="130" height="50" as="geometry" />
        </mxCell>
        <mxCell id="IJ8p-ocKVu34j_YwC-Zw-37" value="Speciality" style="ellipse;whiteSpace=wrap;html=1;align=center;" vertex="1" parent="1">
          <mxGeometry x="475" y="730" width="100" height="40" as="geometry" />
        </mxCell>
        <mxCell id="IJ8p-ocKVu34j_YwC-Zw-38" value="" style="endArrow=none;html=1;rounded=0;exitX=1;exitY=0.75;exitDx=0;exitDy=0;" edge="1" parent="1" source="IJ8p-ocKVu34j_YwC-Zw-31" target="IJ8p-ocKVu34j_YwC-Zw-36">
          <mxGeometry relative="1" as="geometry">
            <mxPoint x="320" y="820" as="sourcePoint" />
            <mxPoint x="480" y="820" as="targetPoint" />
          </mxGeometry>
        </mxCell>
        <mxCell id="IJ8p-ocKVu34j_YwC-Zw-39" value="PHARMACY" style="whiteSpace=wrap;html=1;align=center;" vertex="1" parent="1">
          <mxGeometry x="310" y="860" width="100" height="40" as="geometry" />
        </mxCell>
        <mxCell id="IJ8p-ocKVu34j_YwC-Zw-40" value="Name" style="ellipse;whiteSpace=wrap;html=1;align=center;" vertex="1" parent="1">
          <mxGeometry x="220" y="940" width="100" height="40" as="geometry" />
        </mxCell>
        <mxCell id="IJ8p-ocKVu34j_YwC-Zw-41" value="Address" style="ellipse;whiteSpace=wrap;html=1;align=center;" vertex="1" parent="1">
          <mxGeometry x="355" y="950" width="100" height="40" as="geometry" />
        </mxCell>
        <mxCell id="IJ8p-ocKVu34j_YwC-Zw-42" value="Phone_No" style="ellipse;whiteSpace=wrap;html=1;align=center;" vertex="1" parent="1">
          <mxGeometry x="465" y="920" width="100" height="40" as="geometry" />
        </mxCell>
        <mxCell id="IJ8p-ocKVu34j_YwC-Zw-43" value="" style="endArrow=none;html=1;rounded=0;exitX=0.5;exitY=1;exitDx=0;exitDy=0;entryX=0.36;entryY=0.025;entryDx=0;entryDy=0;entryPerimeter=0;" edge="1" parent="1" source="IJ8p-ocKVu34j_YwC-Zw-39" target="IJ8p-ocKVu34j_YwC-Zw-41">
          <mxGeometry relative="1" as="geometry">
            <mxPoint x="110" y="1010" as="sourcePoint" />
            <mxPoint x="270" y="1010" as="targetPoint" />
          </mxGeometry>
        </mxCell>
        <mxCell id="IJ8p-ocKVu34j_YwC-Zw-44" value="" style="endArrow=none;html=1;rounded=0;exitX=0.39;exitY=0.075;exitDx=0;exitDy=0;exitPerimeter=0;entryX=0.33;entryY=1;entryDx=0;entryDy=0;entryPerimeter=0;" edge="1" parent="1" source="IJ8p-ocKVu34j_YwC-Zw-40" target="IJ8p-ocKVu34j_YwC-Zw-39">
          <mxGeometry relative="1" as="geometry">
            <mxPoint x="240" y="930" as="sourcePoint" />
            <mxPoint x="400" y="930" as="targetPoint" />
          </mxGeometry>
        </mxCell>
        <mxCell id="IJ8p-ocKVu34j_YwC-Zw-45" value="" style="endArrow=none;html=1;rounded=0;exitX=0.75;exitY=1;exitDx=0;exitDy=0;entryX=0.27;entryY=0;entryDx=0;entryDy=0;entryPerimeter=0;" edge="1" parent="1" source="IJ8p-ocKVu34j_YwC-Zw-39" target="IJ8p-ocKVu34j_YwC-Zw-42">
          <mxGeometry relative="1" as="geometry">
            <mxPoint x="420" y="920" as="sourcePoint" />
            <mxPoint x="510" y="920" as="targetPoint" />
          </mxGeometry>
        </mxCell>
        <mxCell id="IJ8p-ocKVu34j_YwC-Zw-46" value="DRUG" style="whiteSpace=wrap;html=1;align=center;" vertex="1" parent="1">
          <mxGeometry x="710" y="810" width="100" height="40" as="geometry" />
        </mxCell>
        <mxCell id="IJ8p-ocKVu34j_YwC-Zw-48" value="Formula" style="ellipse;whiteSpace=wrap;html=1;align=center;" vertex="1" parent="1">
          <mxGeometry x="790" y="740" width="100" height="40" as="geometry" />
        </mxCell>
        <mxCell id="IJ8p-ocKVu34j_YwC-Zw-50" value="" style="endArrow=none;html=1;rounded=0;exitX=0.5;exitY=1;exitDx=0;exitDy=0;entryX=0.19;entryY=-0.05;entryDx=0;entryDy=0;entryPerimeter=0;" edge="1" parent="1" source="IJ8p-ocKVu34j_YwC-Zw-59" target="IJ8p-ocKVu34j_YwC-Zw-46">
          <mxGeometry relative="1" as="geometry">
            <mxPoint x="690" y="776" as="sourcePoint" />
            <mxPoint x="800" y="810" as="targetPoint" />
          </mxGeometry>
        </mxCell>
        <mxCell id="IJ8p-ocKVu34j_YwC-Zw-51" value="" style="endArrow=none;html=1;rounded=0;exitX=0.58;exitY=0.05;exitDx=0;exitDy=0;exitPerimeter=0;entryX=0.5;entryY=1;entryDx=0;entryDy=0;" edge="1" parent="1" source="IJ8p-ocKVu34j_YwC-Zw-46" target="IJ8p-ocKVu34j_YwC-Zw-48">
          <mxGeometry relative="1" as="geometry">
            <mxPoint x="830" y="810" as="sourcePoint" />
            <mxPoint x="990" y="810" as="targetPoint" />
          </mxGeometry>
        </mxCell>
        <mxCell id="IJ8p-ocKVu34j_YwC-Zw-52" value="PHARM_COMPANY" style="whiteSpace=wrap;html=1;align=center;" vertex="1" parent="1">
          <mxGeometry x="870" y="960" width="130" height="40" as="geometry" />
        </mxCell>
        <mxCell id="IJ8p-ocKVu34j_YwC-Zw-53" value="End_Date" style="ellipse;whiteSpace=wrap;html=1;align=center;" vertex="1" parent="1">
          <mxGeometry x="880" y="880" width="100" height="40" as="geometry" />
        </mxCell>
        <mxCell id="IJ8p-ocKVu34j_YwC-Zw-54" value="Text" style="ellipse;whiteSpace=wrap;html=1;align=center;" vertex="1" parent="1">
          <mxGeometry x="1000" y="880" width="100" height="40" as="geometry" />
        </mxCell>
        <mxCell id="IJ8p-ocKVu34j_YwC-Zw-55" value="Start_Date" style="ellipse;whiteSpace=wrap;html=1;align=center;" vertex="1" parent="1">
          <mxGeometry x="760" y="890" width="100" height="40" as="geometry" />
        </mxCell>
        <mxCell id="IJ8p-ocKVu34j_YwC-Zw-56" value="" style="endArrow=none;html=1;rounded=0;exitX=1;exitY=1;exitDx=0;exitDy=0;entryX=0;entryY=0.75;entryDx=0;entryDy=0;" edge="1" parent="1" source="IJ8p-ocKVu34j_YwC-Zw-55" target="IJ8p-ocKVu34j_YwC-Zw-52">
          <mxGeometry relative="1" as="geometry">
            <mxPoint x="680" y="1030" as="sourcePoint" />
            <mxPoint x="840" y="1030" as="targetPoint" />
          </mxGeometry>
        </mxCell>
        <mxCell id="IJ8p-ocKVu34j_YwC-Zw-57" value="" style="endArrow=none;html=1;rounded=0;exitX=0.608;exitY=0.025;exitDx=0;exitDy=0;exitPerimeter=0;entryX=0.5;entryY=1;entryDx=0;entryDy=0;" edge="1" parent="1" source="IJ8p-ocKVu34j_YwC-Zw-52" target="IJ8p-ocKVu34j_YwC-Zw-54">
          <mxGeometry relative="1" as="geometry">
            <mxPoint x="950" y="950" as="sourcePoint" />
            <mxPoint x="1110" y="950" as="targetPoint" />
            <Array as="points">
              <mxPoint x="1000" y="940" />
            </Array>
          </mxGeometry>
        </mxCell>
        <mxCell id="IJ8p-ocKVu34j_YwC-Zw-58" value="" style="endArrow=none;html=1;rounded=0;entryX=0.415;entryY=-0.05;entryDx=0;entryDy=0;entryPerimeter=0;" edge="1" parent="1" source="IJ8p-ocKVu34j_YwC-Zw-53" target="IJ8p-ocKVu34j_YwC-Zw-52">
          <mxGeometry relative="1" as="geometry">
            <mxPoint x="860" y="940" as="sourcePoint" />
            <mxPoint x="1020" y="940" as="targetPoint" />
          </mxGeometry>
        </mxCell>
        <mxCell id="IJ8p-ocKVu34j_YwC-Zw-59" value="Trade_Name" style="ellipse;whiteSpace=wrap;html=1;align=center;fontStyle=4;" vertex="1" parent="1">
          <mxGeometry x="650" y="730" width="100" height="40" as="geometry" />
        </mxCell>
      </root>
    </mxGraphModel>
  </diagram>
</mxfile>
